<?xml version="1.0" encoding="UTF-8" standalone="no"?>
<!-- Creator: CorelDRAW 2018 (64-Bit) -->

<svg
   xmlns:dc="http://purl.org/dc/elements/1.1/"
   xmlns:cc="http://creativecommons.org/ns#"
   xmlns:rdf="http://www.w3.org/1999/02/22-rdf-syntax-ns#"
   xmlns:svg="http://www.w3.org/2000/svg"
   xmlns="http://www.w3.org/2000/svg"
   xmlns:sodipodi="http://sodipodi.sourceforge.net/DTD/sodipodi-0.dtd"
   xmlns:inkscape="http://www.inkscape.org/namespaces/inkscape"
   xml:space="preserve"
   width="19mm"
   height="19mm"
   version="1.1"
   style="clip-rule:evenodd;fill-rule:evenodd;image-rendering:optimizeQuality;shape-rendering:geometricPrecision;text-rendering:geometricPrecision"
   viewBox="0 0 71.811022 71.811023"
   id="svg841"
   sodipodi:docname="Oracle.svg"
   inkscape:version="0.92.2 (5c3e80d, 2017-08-06)"><metadata
     id="metadata845"><rdf:RDF><cc:Work
         rdf:about=""><dc:format>image/svg+xml</dc:format><dc:type
           rdf:resource="http://purl.org/dc/dcmitype/StillImage" /><dc:title></dc:title></cc:Work></rdf:RDF></metadata><sodipodi:namedview
     pagecolor="#ffffff"
     bordercolor="#666666"
     borderopacity="1"
     objecttolerance="10"
     gridtolerance="10"
     guidetolerance="10"
     inkscape:pageopacity="0"
     inkscape:pageshadow="2"
     inkscape:window-width="1920"
     inkscape:window-height="1017"
     id="namedview843"
     showgrid="false"
     fit-margin-top="0"
     fit-margin-left="0"
     fit-margin-right="0"
     fit-margin-bottom="0"
     inkscape:zoom="4.9465101"
     inkscape:cx="-45.228164"
     inkscape:cy="22.987154"
     inkscape:window-x="-8"
     inkscape:window-y="-8"
     inkscape:window-maximized="1"
     inkscape:current-layer="svg841" /><defs
     id="defs833"><style
       type="text/css"
       id="style831"><![CDATA[
    .fil1 {fill:#FEFEFE;fill-rule:nonzero}
    .fil0 {fill:#E32124;fill-rule:nonzero}
   ]]></style></defs><g
     id="Layer_x0020_1"
     style="fill:#e32124;fill-opacity:1"
     transform="translate(-12.494488,18.680512)"><metadata
       id="CorelCorpID_0Corel-Layer" /><path
       class="fil1"
       d="m 82.17,13.8 c 0.07,0 0.14,0 0.18,-0.07 0.01,-0.03 0.02,-0.06 0.02,-0.09 0,-0.06 -0.03,-0.11 -0.08,-0.14 -0.05,-0.02 -0.1,-0.02 -0.21,-0.02 h -0.05 v 0.31 h 0.14 z m -0.09,-0.49 c 0.15,0 0.22,0 0.28,0.03 0.2,0.06 0.22,0.24 0.22,0.3 0,0.01 0,0.05 -0.01,0.09 -0.01,0.04 -0.03,0.12 -0.14,0.19 -0.02,0.01 -0.02,0.01 -0.05,0.02 l 0.25,0.46 h -0.24 l -0.22,-0.42 h -0.14 v 0.42 h -0.22 v -1.09 z m 0.09,1.54 c 0.54,0 0.97,-0.44 0.97,-0.97 0,-0.54 -0.43,-0.97 -0.97,-0.97 -0.53,0 -0.96,0.43 -0.96,0.97 0,0.53 0.43,0.97 0.96,0.97 z m -0.76,-0.97 c 0,-0.42 0.34,-0.77 0.76,-0.77 0.43,0 0.77,0.35 0.77,0.77 0,0.41 -0.35,0.76 -0.77,0.76 -0.41,0 -0.76,-0.35 -0.76,-0.76 z m -6.74,6.17 c -1.28,0 -2.35,-0.86 -2.68,-2.03 h 7.08 l 0.98,-1.52 h -8.07 c 0.32,-1.17 1.41,-2.04 2.68,-2.04 h 4.88 l 0.97,-1.52 h -5.96 c -2.39,0 -4.32,1.93 -4.32,4.31 0,2.38 1.93,4.31 4.32,4.31 h 5.12 l 0.97,-1.52 h -5.98 z m -20.29,1.52 c -2.38,0 -4.31,-1.93 -4.31,-4.31 0,-2.38 1.93,-4.31 4.31,-4.31 h 5.96 l -0.98,1.52 h -4.88 c -1.54,0 -2.79,1.25 -2.79,2.79 0,1.54 1.25,2.79 2.79,2.79 h 5.98 l -0.98,1.52 h -5.12 z m -31.5,-1.52 c 1.54,0 2.8,-1.25 2.8,-2.79 0,-1.54 -1.25,-2.79 -2.8,-2.79 h -4.79 c -1.54,0 -2.79,1.25 -2.79,2.79 0,1.54 1.25,2.79 2.79,2.79 z m -4.9,1.52 c -2.39,0 -4.32,-1.93 -4.32,-4.31 0,-2.38 1.93,-4.31 4.32,-4.31 h 5.01 c 2.38,0 4.31,1.93 4.31,4.31 0,2.38 -1.93,4.31 -4.31,4.31 z m 17.46,-2.79 c 1.62,0 2.92,-1.31 2.92,-2.92 0,-1.61 -1.3,-2.92 -2.92,-2.92 h -7.26 v 8.63 h 1.66 v -7.11 h 5.49 c 0.76,0 1.39,0.63 1.39,1.4 0,0.77 -0.63,1.39 -1.39,1.39 h -4.68 l 4.94,4.32 H 38 l -3.33,-2.79 h 0.75 z m 27.44,1.27 v -7.1 h -1.65 v 7.8 c 0,0.22 0.08,0.42 0.24,0.58 0.16,0.15 0.38,0.25 0.61,0.25 h 7.57 l 0.98,-1.52 h -7.74 z m -20.3,-1.52 h 4.43 l -2.34,-3.77 -4.3,6.82 h -1.95 l 5.22,-8.18 c 0.23,-0.33 0.61,-0.53 1.03,-0.53 0.4,0 0.78,0.19 1.01,0.51 l 5.24,8.2 h -1.96 l -0.92,-1.52 h -4.48 l -0.98,-1.52 z"
       id="path838"
       style="fill:#e32124;fill-opacity:1;fill-rule:nonzero"
       inkscape:connector-curvature="0" /></g></svg>