<svg width="1014.2" height="291.68" version="1.1" viewBox="0 0 1014.2 291.68" xmlns="http://www.w3.org/2000/svg"><defs><clipPath id="c"><path d="M 0,190.67 H 787 V 0 H 0 Z"/></clipPath><clipPath id="d"><path d="M 0,190.67 H 787 V 0 H 0 Z"/></clipPath></defs><g transform="matrix(1.3333 0 0 -1.3333 -17.611 418.44)"><g transform="translate(0 136.5)" clip-path="url(#c)"><g transform="translate(705.1,151.26)"><path d="m0 0c-37.993 0-68.794-30.8-68.794-68.792 0-37.995 30.801-68.793 68.794-68.793 37.994 0 68.794 30.798 68.794 68.793 0 37.992-30.8 68.792-68.794 68.792" fill="#d42b2e" fill-rule="evenodd"/></g><g transform="translate(701.79,34.071)"><path d="m0 0c-5.128 0.147-8.981 1.538-11.563 4.175-2.583 2.637-3.874 6.757-3.874 12.36v16.369c0 4.029-0.723 7.122-2.169 9.284-1.447 2.161-3.581 3.387-6.4 3.68v4.945c5.713 0.622 8.569 4.814 8.569 12.579v16.644c0 5.639 1.291 9.786 3.874 12.442 2.582 2.655 6.435 4.055 11.563 4.202v-5.823c-3.113-0.183-5.348-1.199-6.702-3.048-1.356-1.85-2.032-4.807-2.032-8.871v-16.096c0-7.946-2.711-12.743-8.13-14.392v-0.22c5.419-1.684 8.13-6.61 8.13-14.776v-15.491c0-2.123 0.145-3.936 0.439-5.439 0.292-1.501 0.787-2.746 1.483-3.735 0.695-0.988 1.593-1.729 2.692-2.225 1.099-0.494 2.472-0.758 4.12-0.795z" fill="#ffd8d9"/></g><g transform="translate(732.05,79.939)"><path d="m0 0c-5.677-0.623-8.514-4.943-8.514-12.964v-16.369c0-5.604-1.291-9.724-3.873-12.36-2.582-2.637-6.436-4.028-11.563-4.175v5.768c1.501 0.037 2.802 0.275 3.9 0.714 1.099 0.44 2.005 1.126 2.719 2.06 0.715 0.934 1.245 2.17 1.594 3.708 0.347 1.538 0.521 3.443 0.521 5.713v15.491c0 8.13 2.71 13.055 8.13 14.776v0.22c-5.42 1.721-8.13 6.518-8.13 14.392v16.095c0 2.16-0.183 3.983-0.549 5.466-0.367 1.483-0.907 2.692-1.621 3.625-0.714 0.934-1.62 1.621-2.718 2.06-1.099 0.44-2.381 0.696-3.846 0.769v5.823c5.127-0.147 8.981-1.538 11.563-4.175s3.873-6.793 3.873-12.469v-16.645c0-7.836 2.837-12.03 8.514-12.579z" fill="#ffa8ab"/></g><g transform="translate(656.63,79.284)"><path d="m0 0h5.604v-12.25h85.473v12.25h5.604v-18.787h-96.681z" fill="#ff8e91"/></g><g transform="translate(656.63,104.67)"><path d="m0 0h96.681v-18.842h-5.604v12.305h-85.473v-12.305h-5.604z" fill="#ffc2c4"/></g></g><g transform="matrix(.99998 -.0064097 -.0064097 -.99998 6.8497 181.66)" fill="#fff" aria-label="Lauz ack"><path d="m80.426 0c1.0582 0 1.7196-0.6614 1.7196-1.7196v-21.165c0-1.0582-0.52912-1.5874-1.5874-1.5874h-7.1431c-1.0582 0-1.7196 0.52912-1.7196 1.5874v12.963h-42.065v-75.135h10.053c1.0582 0 1.7196-0.6614 1.7196-1.7196v-6.4817c0-1.0582-0.6614-1.7196-1.7196-1.7196h-31.615c-1.1905 0-1.7196 0.52912-1.7196 1.5874v6.7463c0 1.0582 0.6614 1.5874 1.7196 1.5874h10.053v75.135h-10.053c-1.1905 0-1.7196 0.52912-1.7196 1.5874v6.7463c0 1.0582 0.6614 1.5874 1.7196 1.5874z"/><path d="m158.61 0c1.0582 0 1.5874-0.52912 1.5874-1.5874v-5.688c0-1.0582-0.52912-1.5874-1.5874-1.5874h-7.4077v-30.689c0-19.313-10.715-26.456-27.779-26.456-17.858 0-25.133 7.6722-25.795 8.4659-0.79368 0.6614-0.92596 1.3228-0.26456 2.1165l3.7038 4.6298c0.52912 0.6614 1.3228 0.6614 1.9842 0.39684 0.52912 0 5.9526-6.0849 19.974-6.0849 10.186 0 17.196 3.9684 17.196 16.535v1.5874h-11.112c-20.9 0-35.451 5.9526-35.451 21.033 0 11.508 9.3919 18.387 21.694 18.387 16.006 0 23.414-10.053 25.795-13.36h0.26456v6.7463c0 4.1007 1.8519 5.5558 5.688 5.5558zm-18.387-19.71c-3.0424 3.9684-10.45 11.376-21.562 11.376-8.3336 0-13.625-4.4975-13.625-10.45 0-9.921 10.979-11.641 24.736-11.641h10.45z"/><path d="m237.71 0c1.0582 0 1.7196-0.52912 1.7196-1.5874v-5.688c0-1.0582-0.6614-1.5874-1.7196-1.5874h-7.4077v-54.632c0-1.0582-0.52912-1.5874-1.5874-1.5874h-16.403c-0.92596 0-1.5874 0.52912-1.5874 1.5874v5.688c0 1.0582 0.52912 1.5874 1.5874 1.5874h7.1431v36.377c0 0.26456-4.3652 11.244-17.593 11.244-9.7887 0-14.551-6.2172-14.551-16.138v-34.79c0-4.1007-1.8519-5.5558-5.688-5.5558h-12.699c-0.92596 0-1.5874 0.52912-1.5874 1.5874v5.688c0 1.0582 0.52912 1.5874 1.5874 1.5874h7.54v34.128c0.13228 13.889 8.7305 23.017 23.017 23.017s19.181-8.3336 20.636-11.376h0.39684v4.8944c0 4.1007 1.8519 5.5558 5.688 5.5558z"/><path d="m306.37 0c1.0582 0 1.7196-0.52912 1.7196-1.5874v-17.726c0-1.0582-0.6614-1.5874-1.7196-1.5874h-5.688c-1.0582 0-1.7196 0.52912-1.7196 1.5874v10.45h-36.377l43.388-45.769c1.1905-1.0582 2.1165-2.381 2.1165-4.233v-4.6298c0-1.0582-0.6614-1.5874-1.7196-1.5874h-55.161c-1.0582 0-1.7196 0.52912-1.7196 1.5874v17.461c0 1.0582 0.6614 1.5874 1.7196 1.5874h5.688c1.0582 0 1.5874-0.52912 1.5874-1.5874v-10.186h35.848l-42.859 44.711c-1.1905 1.1905-1.9842 1.9842-1.9842 4.4975v5.4235c0 1.0582 0.6614 1.5874 1.7196 1.5874z"/><path d="m465.9 0c1.0582 0 1.5874-0.52912 1.5874-1.5874v-5.688c0-1.0582-0.52912-1.5874-1.5874-1.5874h-7.4077v-30.689c0-19.313-10.715-26.456-27.779-26.456-17.858 0-25.133 7.6722-25.795 8.4659-0.79368 0.6614-0.92596 1.3228-0.26456 2.1165l3.7038 4.6298c0.52912 0.6614 1.3228 0.6614 1.9842 0.39684 0.52912 0 5.9526-6.0849 19.974-6.0849 10.186 0 17.196 3.9684 17.196 16.535v1.5874h-11.112c-20.9 0-35.451 5.9526-35.451 21.033 0 11.508 9.3919 18.387 21.694 18.387 16.006 0 23.414-10.053 25.795-13.36h0.26456v6.7463c0 4.1007 1.8519 5.5558 5.688 5.5558zm-18.387-19.71c-3.0424 3.9684-10.45 11.376-21.562 11.376-8.3336 0-13.625-4.4975-13.625-10.45 0-9.921 10.979-11.641 24.736-11.641h10.45z"/><path d="m531.24-19.048c-0.79368-0.6614-1.7196-0.52912-2.2488 0.39684-1.8519 3.0424-9.6564 10.318-21.033 10.318-10.979 0-22.091-8.5982-22.091-24.34 0-15.874 11.773-24.075 21.694-24.075 11.508 0 18.651 7.8045 18.784 13.493v2.2488c0 1.0582 0.6614 1.5874 1.5874 1.5874h6.0849c0.92596 0 1.5874-0.52912 1.5874-1.5874v-22.488c0-1.0582-0.52912-1.7196-1.5874-1.7196h-5.0266c-1.0582 0-1.7196 0.6614-1.7196 1.7196l0.13228 7.2754h-0.13228c-2.7779-3.9684-8.995-9.7887-21.033-9.7887-16.006 0-31.483 11.773-31.483 33.202 0 21.165 14.683 33.731 32.541 33.731 17.461 0 26.588-10.979 28.176-13.889 0.52912-0.79368 0.52912-1.5874-0.39684-2.381z"/><path d="m616.03 0c0.92596 0 1.5874-0.52912 1.5874-1.5874v-5.688c0-1.0582-0.52912-1.5874-1.5874-1.5874h-5.688l-24.736-33.202 16.138-14.154h8.5982c1.0582 0 1.5874-0.52912 1.5874-1.5874v-5.688c0-1.0582-0.52912-1.5874-1.5874-1.5874h-25.398c-1.0582 0-1.5874 0.52912-1.5874 1.5874v5.688c0 1.0582 0.52912 1.5874 1.5874 1.5874h4.7621l-24.075 22.091v-59.261c0-1.0582-0.52912-1.5874-1.5874-1.5874h-16.667c-1.0582 0-1.7196 0.52912-1.7196 1.5874v5.688c0 1.0582 0.6614 1.5874 1.7196 1.5874h7.2754v77.252h-7.2754c-1.0582 0-1.7196 0.52912-1.7196 1.5874v5.688c0 1.0582 0.6614 1.5874 1.7196 1.5874h25.265c1.0582 0 1.7196-0.52912 1.7196-1.5874v-5.688c0-1.0582-0.6614-1.5874-1.7196-1.5874h-7.0108v-15.08l12.831-11.905 23.414 31.747c1.8519 2.6456 4.233 4.1007 7.0108 4.1007z"/></g><g transform="translate(0 136.5)" clip-path="url(#d)"><g transform="translate(394.06,131.27)"><path d="m0 0 0.644 0.644-0.644 0.643v1.331h-0.065v1.56l0.246 0.135v2.224l-0.246 0.132v0.463h-3e-3l-8e-3 1.178-0.645-1.178h-0.019l-0.751 5.238h0.353v0.185h-0.273v0.444h-0.237v-0.444h-0.28v-0.185h0.337l-0.725-5.238h-0.131l-0.624 1.178-0.012-1.668-0.195-0.105v-2.216l0.223-0.129v-1.574h-1.701l-1.981 1.923-0.592 2.643-0.012 1.835-0.283-0.517-0.589 2.63-0.013 1.946-0.3-0.548-0.725 3.24c0.138 0.102 0.237 0.223 0.239 0.361 4e-3 0.244-0.176 0.402-0.432 0.497l-0.054 0.242c0.401 0.126 0.705 0.388 0.705 0.79 0 0.527-0.508 1.115-1.094 1.208l-0.059 3.178h0.181v0.246h-0.186l-0.054 2.88h-0.079l-0.055-2.88h-0.177v-0.246h0.172l-0.061-3.179c-0.578-0.099-1.057-0.701-1.057-1.227 0-0.394 0.277-0.643 0.656-0.766l-0.058-0.249c-0.297-0.108-0.517-0.284-0.517-0.494 0-0.158 0.124-0.298 0.309-0.406l-0.717-3.095-0.252 0.475-0.01-1.605-0.706-3.044-0.312 0.589-0.013-1.994-0.573-2.472-2.234-1.961h-1.387v1.548l0.268 0.147v2.224l-0.245 0.132-0.011 1.641-0.661-1.206-0.754 5.266h0.352v0.185h-0.272v0.444h-0.237v-0.444h-0.281v-0.185h0.338l-0.753-5.435-0.728 1.375-0.011-1.668-0.195-0.105v-2.216l0.223-0.129v-1.574h-0.017v-1.217l-0.682-0.682 0.682-0.683v-6.315h-0.36v-2.344h0.36v-19.294l-22.846 11.648v15.979c0.197 0.094 0.341 0.346 0.341 0.651 0 0.385-0.225 0.696-0.501 0.696-4e-3 0-8e-3 -3e-3 -0.012-3e-3v1.931l0.261 0.248-3e-3 4e-3h3e-3v1.43h-1e-3l-0.305 0.321v7e-3l-1.144 7.984-1.115-8.057-0.139 0.258-0.06 0.16-0.162 1.65-0.092-0.965-1.591 4.29-0.349-0.975-0.889 1.641-4.097 25.937v0.178l-0.099 5.821h0.261v0.256h-0.266l-0.023 1.356c0.162 4e-3 0.243 0.034 0.333 0.258 0.015 0.038 5e-3 0.076-0.012 0.112 0.028-7e-3 0.052-0.023 0.084-0.016 0.103 0.02 0.303 0.095 0.31 0.169 6e-3 0.068-0.079 0.115-0.226 0.144-0.11 0.022-0.271-0.086-0.296-0.161-0.061 0.039-0.132 0.066-0.203 0.083l-0.017 0.945-0.015-0.94c-0.034 6e-3 -0.069 0.017-0.1 0.016-0.038-1e-3 -0.073-0.014-0.106-0.027-0.104 0.101-0.239 0.165-0.362 0.149-0.226-0.029-0.382-0.115-0.413-0.444-0.054-0.577 0.101-0.416 0.371-0.156 0.082 0.079 0.148 0.115 0.207 0.135 2e-3 -3e-3 0-6e-3 1e-3 -9e-3 0.14-0.303 0.163-0.259 0.377-0.26h0.015l-0.023-1.354h-0.312v-0.256h0.308l-0.099-5.947-4.252-26.017-1.163-1.97-0.494 1.332-1.538-4.291-0.094 0.966-0.16-1.675-0.135-0.378-1.132 7.9-1.072-7.747-0.198-0.187h-0.01v-0.01l-0.237-0.225v-1.431h3e-3l-3e-3 -3e-3 0.237-0.249v-1.963c-0.216-0.078-0.377-0.337-0.377-0.661 0-0.292 0.13-0.54 0.314-0.643l-0.18-57.385 20.651-10.432v33.613l22.846-11.648v-33.632l20.06-10.207v81.35h0.234v2.344h-0.234z" fill="#fff"/></g></g><g transform="scale(1,-1)" fill="#fff" stroke-width=".75002" aria-label="Against COVID-19"><path d="m87.755-110.05h-14.464q-0.76802 0-0.76802-0.76803v-3.2641q0-0.76802 0.76802-0.76802h4.4801l-4.1601-11.072h-17.857l-4.1601 11.072h4.4801q0.76802 0 0.76802 0.76802v3.2641q0 0.76803-0.76802 0.76803h-14.4q-0.76802 0-0.76802-0.76803v-3.2641q0-0.76802 0.76802-0.76802h4.2881l13.76-36.353h-3.4561q-0.83203 0-0.83203-0.76802v-3.2641q0-0.76803 0.83203-0.76803h8.7043q1.536 0 2.3041 0.64002 0.83203 0.64002 1.408 2.1121l14.72 38.401h4.3521q0.76802 0 0.76802 0.76802v3.2641q0 0.76803-0.76802 0.76803zm-15.872-20.289-7.1042-19.009h-0.19201l-7.1682 19.009z"/><path d="m105.76-95.075q-3.2001 0-4.8642-0.44801-1.6001-0.44801-2.6241-0.83203-0.96003-0.32001-1.6641-0.70402-0.70402-0.32001-1.344-0.70402-2.8161-1.8561-2.1121-2.6881l1.6641-2.3681q0.38401-0.57601 1.088-0.064 0.064 0 0.38401 0.25601 0.38401 0.32001 0.70402 0.57602 0.38401 0.25601 0.96003 0.57602 0.64002 0.38401 1.408 0.64002 0.76802 0.32001 1.664 0.57601 2.1121 0.57602 4.6722 0.57602 4.6081 0 7.3602-2.2401 2.8161-2.1761 2.8161-6.9122v-7.2962q-1.152 2.6881-3.8401 4.6081-2.6241 1.9201-6.5922 1.9201-6.5282 0-10.496-4.5441-3.9041-4.5441-3.9041-11.776 0-7.2322 3.9681-11.648 4.0321-4.4161 10.432-4.4161 3.9681 0 6.6562 1.8561 2.7521 1.792 3.9681 4.4161h0.12801l-0.064-5.0562q0-0.76803 0.76803-0.76803h7.5522q0.76803 0 0.76803 0.76803v2.7521q0 0.76803-0.76803 0.76803h-3.4561v28.417q0 6.8482-4.2241 10.304-4.1601 3.4561-11.008 3.4561zm-9.4723-30.721q0 5.2482 2.8161 8.5123 2.8161 3.2001 7.0402 3.2001t6.9762-3.2001q2.8161-3.2001 2.8161-8.5763 0-5.3762-2.8161-8.5123-2.7521-3.1361-6.9762-3.1361t-7.0402 3.2001-2.8161 8.5123z"/><path d="m160.84-110.05h-5.5682q-2.7521 0-2.7521-2.6881v-3.2641h-0.128q-4.6722 6.4642-12.48 6.4642-4.6081 0-7.5522-2.3681-2.9441-2.4321-2.9441-6.5282 0-5.2482 4.5441-7.6802 4.6082-2.4961 12.608-2.4961h5.3762v-0.76803q0-8.0002-8.3203-8.0002-3.9041 0-5.6322 0.76803-1.728 0.70402-2.4961 1.152-0.70402 0.44802-1.088 0.70403-0.96003 0.76802-1.408 0.128l-1.792-2.2401q-0.44802-0.51202 0.128-1.024 1.088-1.408 4.4801-2.7521 3.3921-1.344 8.0002-1.344 13.44 0 13.44 12.8v14.848h3.5841q0.76803 0 0.76803 0.76803v2.7521q0 0.76803-0.76803 0.76803zm-8.8963-14.72h-5.0562q-3.7121 0-6.1442 0.38401-2.4321 0.38401-4.1601 1.664-1.6641 1.28-1.6641 3.5201t1.7921 3.7121q1.8561 1.408 4.8002 1.408 6.2082 0 10.432-5.5042z"/><path d="m179.59-110.05h-12.224q-0.83203 0-0.83203-0.76803v-2.7521q0-0.76803 0.83203-0.76803h3.5201v-22.913h-3.5201q-0.83203 0-0.83203-0.76803v-2.7521q0-0.76803 0.83203-0.76803h8.0642q0.76802 0 0.76802 0.76803v26.433h3.3921q0.83202 0 0.83202 0.76803v2.7521q0 0.76803-0.83202 0.76803zm-3.6481-40.961q1.088 1.088 1.088 2.5601 0 1.472-1.088 2.4961-1.024 1.024-2.4961 1.024-1.472 0-2.5601-1.024-1.024-1.024-1.024-2.4961 0-1.472 1.024-2.5601 1.088-1.088 2.5601-1.088 1.472 0 2.4961 1.088z"/><path d="m219.34-110.05h-6.0802q-2.7521 0-2.7521-2.6881v-16.833q0-3.7121-1.7921-5.7602-1.792-2.0481-5.2482-2.0481-4.9282 0-7.6802 4.0321-0.32001 0.38401-0.83203 1.408v17.601h3.3921q0.83202 0 0.83202 0.76803v2.7521q0 0.76803-0.83202 0.76803h-12.224q-0.83203 0-0.83203-0.76803v-2.7521q0-0.76803 0.83203-0.76803h3.5201v-22.913h-3.5201q-0.83203 0-0.83203-0.76803v-2.7521q0-0.76803 0.83203-0.76803h7.4882q0.83203 0 0.83203 0.76803l-0.12801 4.3521h0.19201q3.3281-5.5682 10.304-5.5682 5.1202 0 8.0002 3.0081 2.8801 3.0081 2.9441 8.1283v16.513h3.5841q0.83203 0 0.83203 0.76803v2.7521q0 0.76803-0.83203 0.76803z"/><path d="m238.12-109.6q-4.2881 0-6.8482-1.6t-3.2001-3.0081h-0.12801q0.12801 3.1361 0.12801 3.3281 0 0.83203-0.89603 0.83203h-2.1761q-0.83203 0-0.83203-0.83203v-9.6003q0-0.83202 0.83203-0.83202h2.4961q0.89603 0 0.89603 0.83202v1.28q0.64002 1.9201 2.6881 3.5201 2.4321 1.9201 6.0802 1.9201 7.1682 0 7.1682-4.9922 0-1.7281-1.9841-2.7521-1.9841-1.088-4.8642-1.7921-2.8161-0.70402-5.6322-1.6-2.8161-0.89602-4.8002-2.8801-1.9841-2.0481-1.9841-5.1202 0-4.1601 3.0081-6.5922 3.0081-2.4961 7.6802-2.4961 6.3362 0 9.0883 3.7121h0.128q-0.128-2.3041-0.128-2.3681 0-0.83202 0.83203-0.83202h2.0481q0.83203 0 0.83203 0.83202v8.8963q0 0.83203-0.83203 0.83203h-2.4961q-0.89603 0-0.89603-0.83203v-0.89603q0-1.728-2.0481-3.3921-1.9841-1.7281-5.1842-1.7281t-4.9922 1.344q-1.792 1.344-1.792 3.5201 0 2.1121 1.9841 3.3281 2.0481 1.152 4.9282 1.8561 2.8801 0.64002 5.7602 1.472 2.8801 0.83203 4.8642 2.7521 2.0481 1.9201 2.0481 5.3122 0 3.3921-2.9441 6.0162-2.8801 2.5601-8.8323 2.5601z"/><path d="m275.67-113.32q0.25601 0.256 0.25601 0.57601 0 0.25601-0.38401 0.64002-2.8161 2.4961-7.1042 2.4961-4.2241 0-6.9762-2.7521-2.6881-2.8161-2.6881-8.1283v-16.769h-3.5841q-0.89603 0-0.89603-0.83203v-2.6241q0-0.83203 0.89603-0.83203h3.5841v-6.4642q0-0.89603 0.89603-0.89603h3.5841q0.83203 0 0.83203 0.89603v6.4642h8.1282q0.89603 0 0.89603 0.83203v2.6241q0 0.83203-0.89603 0.83203h-8.1282v16.641q0 3.2001 1.408 4.8642 1.472 1.6 3.8401 1.6 2.4321 0 3.6481-1.216 0.64002-0.57602 1.152 0.064z"/><path d="m342.09-121.64q0.32001 0.256 0.32001 0.64002 0 0.32001-0.32001 0.96003-0.256 0.57601-0.96003 1.6-0.64002 0.96003-2.3681 2.6881t-3.7761 3.0081q-2.0481 1.216-5.4402 2.1761-3.3281 0.96003-7.1682 0.96003-9.3443 0-15.616-6.5282-6.2082-6.5282-6.2082-17.089 0-10.624 6.2722-16.897 6.3362-6.2722 15.232-6.2722 9.9203 0 14.4 6.8482l-0.064-5.6962q-0.12801-0.76803 0.76802-0.76803h3.5841q0.83203 0 0.83203 0.76803v13.952q0 0.83203-0.83203 0.83203h-4.0321q-0.76803 0-0.76803-0.83203v-0.57602q0-2.9441-4.0321-6.0802-3.9681-3.2001-9.9203-3.2001-5.9522 0-10.752 4.7362-4.7362 4.6722-4.7362 13.312 0 8.5763 4.8002 13.376 4.8002 4.7361 11.264 4.7361 6.9762 0 11.008-3.1361 3.1361-2.4321 4.6081-4.9282 0.51202-0.96003 1.216-0.38401z"/><path d="m391.98-133.22q0 10.496-6.3362 17.089-6.2722 6.5282-15.872 6.5282-9.5363 0-15.936-6.5922-6.4002-6.6562-6.4002-17.089 0-10.496 6.5922-16.769 6.5922-6.3362 15.744-6.3362t15.68 6.3362q6.5282 6.2722 6.5282 16.833zm-33.665 13.568q4.9282 4.8642 11.456 4.8642t11.392-4.8642q4.8642-4.9282 4.8642-13.44 0-8.5763-4.9922-13.376-4.9282-4.8642-11.264-4.8642t-11.328 4.8642q-4.9922 4.8002-4.9922 13.376 0 8.5123 4.8642 13.44z"/><path d="m417.9-110.05h-2.4961q-1.216 0-1.8561-0.57602t-1.152-1.9841l-14.912-38.593h-4.0961q-0.83202 0-0.83202-0.76802v-3.2641q0-0.76803 0.83202-0.76803h14.4q0.76803 0 0.76803 0.76803v3.2641q0 0.76802-0.76803 0.76802h-4.3521l12.992 34.369h0.38401l12.992-34.369h-4.3521q-0.83202 0-0.83202-0.76802v-3.2641q0-0.76803 0.83202-0.76803h14.4q0.83203 0 0.83203 0.76803v3.2641q0 0.76802-0.83203 0.76802h-4.2241l-14.784 38.593q-0.44802 1.344-1.088 1.9841-0.57601 0.57602-1.856 0.57602z"/><path d="m459.88-110.05h-15.36q-0.83203 0-0.83203-0.76803v-3.2641q0-0.76802 0.83203-0.76802h4.8642v-36.353h-4.8642q-0.83203 0-0.83203-0.76802v-3.2641q0-0.76803 0.83203-0.76803h15.36q0.83202 0 0.83202 0.76803v3.2641q0 0.76802-0.83202 0.76802h-4.9282v36.353h4.9282q0.83202 0 0.83202 0.76802v3.2641q0 0.76803-0.83202 0.76803z"/><path d="m485.25-110.05h-18.369q-0.76803 0-0.76803-0.76803v-3.2641q0-0.76802 0.76803-0.76802h4.9282v-36.353h-4.9282q-0.76803 0-0.76803-0.76802v-3.2641q0-0.76803 0.76803-0.76803h17.281q10.624 0 16.897 6.1442 6.2722 6.0802 6.2722 16.769 0 10.688-5.9522 16.897-5.9522 6.1442-16.129 6.1442zm-7.8722-4.8002h6.3362q17.793-0.12801 17.793-18.113 0-8.6403-4.6081-13.44-4.5442-4.8002-13.376-4.8002h-6.1442z"/><path d="m533.97-124.26h-19.905q-0.89603 0-0.89603-0.83202v-3.2641q0-0.83203 0.89603-0.83203h19.905q0.83203 0 0.83203 0.83203v3.2641q0 0.83202-0.83203 0.83202z"/><path d="m566.56-110.05h-25.281q-0.83202 0-0.83202-0.76803v-3.2641q0-0.76802 0.83202-0.76802h10.368v-35.137l-8.8323 6.3362q-0.64002 0.44801-1.088-0.19201l-1.7921-2.6241q-0.192-0.25601-0.192-0.51202 0-0.256 0.38401-0.57601l11.136-8.0002q0.64002-0.44802 1.152-0.44802h4.0321q0.76802 0 0.76802 0.76803v40.385h9.3443q0.76803 0 0.76803 0.76802v3.2641q0 0.76803-0.76803 0.76803z"/><path d="m574.67-122.47h3.9041q0.76803 0 0.76803 0.76802 0 2.5601 2.1761 4.8002 2.2401 2.2401 6.5282 2.2401 5.5042 0 8.5763-3.9041 3.1361-3.9041 3.7121-11.072-5.1842 3.2641-12.608 3.2641t-11.52-3.9681q-4.0321-4.0321-4.0321-10.752t4.5441-11.008q4.5442-4.2881 12.544-4.2881 8.0002 0 12.544 6.2722 4.6081 6.2722 4.6081 16.961 0 10.688-4.8002 17.153-4.8002 6.4002-13.568 6.4002-6.4002 0-10.304-3.3281-3.8401-3.3921-3.8401-8.7683 0-0.76802 0.76802-0.76802zm25.921-11.776q-0.12801-8.1282-3.2001-12.544-3.0081-4.4161-8.3203-4.4161-5.2482 0-8.1923 2.8801-2.9441 2.8161-2.9441 7.4242 0 4.6082 3.0081 7.4242 3.0081 2.7521 8.7043 2.7521 5.6962 0 10.944-3.5201z"/></g></g></svg>
